<?xml version="1.0" standalone="no"?>
<!DOCTYPE svg PUBLIC "-//W3C//DTD SVG 20010904//EN"
 "http://www.w3.org/TR/2001/REC-SVG-20010904/DTD/svg10.dtd">
<svg version="1.0" xmlns="http://www.w3.org/2000/svg"
 width="370.000000pt" height="371.000000pt" viewBox="0 0 370.000000 371.000000"
 preserveAspectRatio="xMidYMid meet">

<g transform="translate(0.000000,371.000000) scale(0.100000,-0.100000)"
fill="#000000" stroke="none">
<path d="M1587 3675 c-783 -127 -1382 -705 -1539 -1485 -31 -155 -33 -499 -4
-655 70 -383 243 -712 516 -985 227 -226 470 -373 773 -464 165 -50 280 -68
479 -73 258 -8 459 25 693 112 631 235 1085 800 1180 1466 19 134 19 396 0
521 -43 288 -155 570 -319 803 -90 128 -310 348 -436 438 -117 83 -352 202
-484 246 -200 66 -307 83 -551 87 -158 2 -245 -1 -308 -11z m296 -591 l137
-185 148 2 c117 1 155 -2 187 -15 47 -20 87 -55 78 -69 -3 -6 -1 -7 6 -3 17
11 53 -76 53 -129 0 -24 -5 -52 -10 -62 -8 -15 -2 -30 29 -77 64 -95 70 -130
70 -390 0 -126 -3 -231 -6 -235 -4 -3 -46 -4 -95 -3 -88 4 -88 4 -117 -28 -39
-44 -76 -61 -132 -62 -55 0 -94 17 -135 61 l-30 31 -207 0 c-205 0 -208 0
-226 -23 -38 -48 -76 -68 -134 -68 -65 -1 -109 18 -141 62 -23 31 -24 31 -108
29 -47 -2 -91 -2 -98 -1 -10 1 -12 84 -10 399 l3 397 43 3 c43 3 43 3 37 35
-4 18 -25 69 -46 114 -42 89 -48 118 -23 127 9 3 59 6 113 6 l97 0 49 -50 49
-50 98 0 c59 0 98 4 98 10 0 6 -36 83 -80 171 -65 128 -79 164 -69 175 9 11
39 14 123 14 l111 -1 138 -185z m-1593 -1590 c25 -58 47 -107 50 -109 3 -2 27
44 52 103 46 107 46 107 83 110 28 3 36 0 32 -10 -33 -83 -123 -286 -130 -295
-5 -7 -24 -13 -42 -13 -32 0 -32 1 -95 147 -34 81 -65 153 -67 160 -4 9 7 13
34 13 l39 0 44 -106z m320 -54 l0 -160 -35 0 -35 0 0 160 0 160 35 0 35 0 0
-160z m322 1 c37 -84 68 -155 68 -157 0 -2 -16 -4 -35 -4 -31 0 -38 5 -52 35
l-17 35 -73 0 -73 0 -14 -35 c-13 -31 -19 -35 -50 -35 -20 0 -36 2 -36 5 0 4
50 117 109 248 31 68 31 68 68 65 l36 -3 69 -154z m286 27 l-5 -131 -33 -30
c-30 -26 -38 -29 -86 -25 -32 3 -62 12 -73 22 -19 17 -19 19 -3 41 15 21 19
22 39 9 30 -19 69 -18 77 2 3 9 6 54 6 100 l0 84 -55 0 c-54 0 -55 0 -55 30
l0 30 96 0 97 0 -5 -132z m312 102 l0 -30 -85 0 -85 0 0 -35 0 -35 75 0 c73 0
75 -1 75 -25 0 -24 -2 -25 -75 -25 l-75 0 0 -40 0 -40 85 0 85 0 0 -30 0 -30
-120 0 -120 0 0 160 0 160 120 0 120 0 0 -30z m258 19 c28 -10 30 -12 20 -40
-8 -22 -14 -27 -26 -20 -58 29 -132 19 -132 -19 0 -15 15 -24 68 -39 76 -23
112 -53 112 -95 0 -62 -49 -96 -140 -96 -41 0 -96 17 -118 35 -1 1 3 14 9 28
11 25 13 25 40 12 37 -20 113 -19 129 0 19 23 -1 40 -68 59 -80 22 -104 46
-100 99 2 34 9 45 37 64 38 26 115 31 169 12z m332 -19 l0 -30 -80 0 -80 0 0
-35 0 -35 70 0 c68 0 70 -1 70 -25 0 -24 -2 -25 -70 -25 l-70 0 0 -40 0 -40
85 0 85 0 0 -30 0 -30 -125 0 -125 0 0 160 0 160 120 0 120 0 0 -30z m306 14
c45 -22 50 -32 27 -56 -19 -19 -22 -19 -51 -4 -74 38 -144 7 -161 -71 -5 -24
-6 -43 -2 -43 3 0 14 -13 23 -29 18 -32 67 -48 112 -37 21 5 25 13 28 54 3 45
4 47 36 50 l33 3 -3 -68 c-3 -64 -5 -69 -33 -83 -47 -23 -157 -20 -192 6 -54
40 -75 83 -71 144 5 64 25 98 78 129 43 25 128 28 176 5z m184 -94 c0 -97 2
-112 20 -130 20 -20 65 -26 86 -12 25 16 34 56 34 151 l0 101 35 0 35 0 0
-110 c0 -81 -4 -119 -15 -141 -48 -91 -212 -92 -254 -2 -8 16 -16 79 -19 141
l-5 112 42 0 41 0 0 -110z m488 95 c83 -34 96 -136 23 -192 -14 -10 -12 -17
17 -56 17 -25 32 -48 32 -51 0 -3 -15 -6 -34 -6 -30 0 -40 7 -67 45 -27 38
-38 45 -65 45 -31 0 -33 -2 -36 -42 -3 -42 -4 -43 -38 -43 l-35 0 -3 158 -3
157 86 0 c53 0 99 -6 123 -15z m369 -1 c79 -38 111 -157 61 -231 -53 -77 -178
-96 -253 -38 -99 75 -80 228 35 274 39 15 118 13 157 -5z m-2917 -434 c0 -5
-4 -10 -10 -10 -5 0 -10 5 -10 10 0 6 5 10 10 10 6 0 10 -4 10 -10z m150 0 c0
-5 -4 -10 -10 -10 -5 0 -10 5 -10 10 0 6 5 10 10 10 6 0 10 -4 10 -10z m620 0
c0 -5 -4 -10 -10 -10 -5 0 -10 5 -10 10 0 6 5 10 10 10 6 0 10 -4 10 -10z
m140 0 c0 -5 -4 -10 -10 -10 -5 0 -10 5 -10 10 0 6 5 10 10 10 6 0 10 -4 10
-10z m330 0 c0 -5 -5 -10 -11 -10 -5 0 -7 5 -4 10 3 6 8 10 11 10 2 0 4 -4 4
-10z m230 -50 c0 -33 -4 -60 -10 -60 -11 0 -14 103 -3 113 12 12 13 8 13 -53z
m-1582 10 c9 -22 20 -40 23 -40 3 0 13 18 22 40 8 22 20 40 26 40 16 0 -33
-105 -51 -108 -8 -2 -18 5 -21 15 -2 10 -12 35 -21 56 -10 23 -12 37 -5 37 6
0 18 -18 27 -40z m592 30 c0 -5 -16 -10 -36 -10 -42 0 -43 -23 -1 -28 37 -5
34 -22 -4 -22 -42 0 -33 -23 12 -31 31 -6 30 -6 -13 -8 l-48 -1 0 55 0 55 45
0 c25 0 45 -4 45 -10z m177 -30 c9 -22 19 -40 22 -40 3 0 14 18 23 40 9 22 21
40 27 40 15 0 -33 -105 -50 -108 -8 -1 -22 16 -34 45 -11 26 -21 51 -23 55 -2
4 2 8 8 8 6 0 19 -18 27 -40z m467 -3 l18 -42 19 43 c24 52 46 57 23 5 -9 -21
-19 -46 -21 -56 -3 -10 -13 -17 -21 -15 -20 4 -67 108 -49 108 6 0 20 -19 31
-43z m616 33 c16 -10 14 -11 -35 -13 -23 -2 -31 -7 -33 -25 -5 -35 16 -55 52
-48 23 5 28 4 19 -5 -15 -15 -59 -15 -78 1 -50 41 20 125 75 90z m339 -25 c17
-19 33 -35 36 -35 3 0 5 16 5 35 0 19 5 35 10 35 6 0 10 -25 10 -55 0 -64 -14
-71 -48 -25 -13 17 -27 30 -32 30 -6 0 -10 -13 -10 -30 0 -16 -4 -30 -10 -30
-5 0 -10 25 -10 55 0 30 4 55 9 55 5 0 23 -16 40 -35z m417 10 c9 -8 11 -15 5
-15 -6 0 -11 -13 -11 -30 0 -16 5 -30 11 -30 5 0 8 -4 4 -10 -11 -18 -35 2
-35 30 0 16 -5 32 -10 35 -8 5 -7 11 1 21 14 18 17 17 35 -1z m-2496 -45 c0
-22 -4 -40 -10 -40 -5 0 -10 18 -10 40 0 22 5 40 10 40 6 0 10 -18 10 -40z
m98 -1 c3 -31 0 -37 -20 -41 -33 -6 -48 1 -48 22 0 11 10 20 25 24 15 4 23 11
19 17 -3 6 -15 9 -25 6 -11 -3 -19 -1 -19 5 0 5 15 8 33 6 29 -3 32 -6 35 -39z
m52 -13 c0 -41 -4 -55 -17 -60 -9 -4 -21 -2 -27 4 -7 7 -5 10 7 10 14 0 17 10
17 50 0 28 5 50 10 50 6 0 10 -24 10 -54z m98 13 c3 -32 0 -37 -22 -41 -26 -5
-56 7 -56 23 0 6 13 15 30 20 32 12 31 34 -1 26 -11 -3 -19 -1 -19 5 0 5 15 8
33 6 29 -3 32 -6 35 -39z m70 27 c-10 -7 -18 -25 -18 -40 0 -14 -4 -26 -10
-26 -5 0 -10 18 -10 40 0 37 2 40 28 40 24 -1 25 -2 10 -14z m242 3 c0 -6 -9
-8 -20 -4 -29 9 -25 -10 5 -23 14 -6 25 -16 25 -22 0 -13 -41 -29 -57 -23 -20
8 -15 22 6 16 10 -3 22 0 25 6 4 7 -1 11 -13 11 -23 0 -35 15 -27 35 6 17 56
21 56 4z m210 -29 c0 -22 -4 -40 -10 -40 -5 0 -10 18 -10 40 0 22 5 40 10 40
6 0 10 -18 10 -40z m50 9 l13 -31 13 31 c19 46 35 37 17 -9 -20 -49 -39 -51
-59 -5 -16 40 -17 45 -5 45 5 0 14 -14 21 -31z m90 -9 c0 -22 -4 -40 -10 -40
-5 0 -10 18 -10 40 0 22 5 40 10 40 6 0 10 -18 10 -40z m80 30 c0 -4 -7 -10
-15 -14 -8 -3 -15 -17 -15 -31 0 -14 -4 -25 -10 -25 -5 0 -10 17 -10 39 0 34
3 39 25 39 14 0 25 -4 25 -8z m240 -30 c0 -22 -4 -40 -10 -40 -5 0 -10 18 -10
40 0 22 5 40 10 40 6 0 10 -18 10 -40z m44 15 c8 -32 20 -32 36 3 7 15 15 22
17 15 5 -15 -24 -73 -37 -73 -10 0 -40 52 -40 70 0 20 18 9 24 -15z m144 13
c22 -22 13 -38 -19 -38 -19 0 -28 -4 -23 -11 3 -6 15 -9 25 -6 11 3 19 2 19
-3 0 -10 -31 -18 -48 -13 -7 3 -17 13 -22 24 -23 41 35 80 68 47z m150 0 c20
-20 14 -58 -10 -67 -42 -16 -78 22 -58 60 12 21 50 25 68 7z m270 0 c20 -20
14 -58 -10 -67 -43 -17 -85 31 -58 64 15 18 52 19 68 3z m120 -30 c2 -22 -1
-38 -7 -38 -6 0 -11 13 -11 29 0 35 -25 48 -40 21 -5 -10 -10 -26 -10 -34 0
-9 -4 -16 -10 -16 -5 0 -10 18 -10 39 l0 39 43 -2 c41 -1 42 -2 45 -38z m282
27 c16 -19 10 -45 -15 -61 -39 -26 -86 31 -53 64 16 16 53 15 68 -3z m90 4 c0
-6 -9 -8 -20 -4 -29 9 -25 -10 5 -23 14 -6 25 -16 25 -22 0 -13 -41 -29 -57
-23 -20 8 -15 22 6 16 10 -3 22 0 25 6 4 7 -1 11 -13 11 -23 0 -35 15 -27 35
6 17 56 21 56 4z m98 -1 c20 -20 14 -58 -10 -67 -43 -17 -85 31 -58 64 15 18
52 19 68 3z m152 5 c0 -2 -7 -11 -15 -19 -8 -9 -15 -24 -15 -35 0 -10 -4 -19
-10 -19 -5 0 -10 17 -10 39 0 34 3 39 25 39 14 0 25 -3 25 -5z m86 -1 c29 -20
19 -68 -16 -72 -29 -4 -39 0 -50 20 -21 40 28 78 66 52z m99 -2 c-3 -5 -12 -7
-19 -4 -8 3 -17 1 -20 -5 -4 -6 5 -13 19 -17 15 -4 25 -13 25 -24 0 -19 -32
-32 -56 -23 -24 9 -16 21 11 15 14 -2 25 0 25 6 0 5 -11 13 -25 16 -24 6 -33
25 -18 39 10 11 65 8 58 -3z m-1741 -83 c-13 -35 -23 -13 -15 33 1 2 6 -1 11
-6 6 -6 8 -18 4 -27z"/>
<path d="M1600 3194 c0 -3 37 -78 81 -166 58 -115 79 -165 73 -176 -8 -11 -40
-14 -168 -14 l-158 0 -47 46 c-44 43 -50 46 -100 46 -29 0 -51 -3 -49 -8 18
-42 58 -153 62 -174 l6 -27 488 -3 487 -3 69 -32 c37 -18 70 -33 72 -33 13 0
1 90 -16 117 -35 59 -65 67 -255 70 -144 2 -172 5 -180 19 -5 9 -65 90 -133
180 l-122 164 -55 0 c-30 0 -55 -3 -55 -6z"/>
<path d="M1202 2503 l3 -148 173 -3 172 -2 0 150 0 150 -175 0 -176 0 3 -147z"/>
<path d="M1620 2500 l0 -150 153 0 c197 0 187 -9 187 168 l0 132 -170 0 -170
0 0 -150z"/>
<path d="M2031 2515 c1 -115 -2 -140 -18 -167 -38 -67 -47 -68 -451 -68 l-363
0 3 -147 3 -148 58 -3 c54 -3 57 -2 57 20 1 36 35 102 65 126 103 81 253 22
275 -108 l5 -35 194 0 194 0 12 50 c31 120 173 170 269 94 32 -25 66 -89 66
-124 0 -25 2 -26 58 -23 l57 3 3 148 3 147 -131 0 c-220 0 -240 19 -240 233
l0 137 -60 0 -61 0 2 -135z"/>
<path d="M2220 2517 c0 -172 -6 -167 169 -167 l124 0 -7 43 c-18 111 -130 221
-258 252 l-28 7 0 -135z"/>
<path d="M1454 2090 c-12 -4 -31 -21 -44 -37 -41 -53 -7 -143 60 -158 43 -10
98 18 115 58 36 86 -46 172 -131 137z"/>
<path d="M2190 2089 c-79 -31 -82 -153 -4 -185 47 -20 87 -10 119 28 43 51 28
125 -30 153 -37 17 -50 18 -85 4z"/>
<path d="M808 1489 c-34 -79 -34 -79 16 -79 25 0 46 3 45 8 0 4 -11 30 -23 57
l-23 50 -15 -36z"/>
<path d="M2970 1485 l0 -55 43 0 c54 0 80 18 80 55 0 37 -26 55 -80 55 l-43 0
0 -55z"/>
<path d="M3327 1529 c-21 -12 -47 -61 -47 -89 0 -87 109 -132 171 -71 63 63
20 171 -68 171 -21 0 -46 -5 -56 -11z"/>
<path d="M595 1060 c3 -5 13 -10 21 -10 8 0 14 5 14 10 0 6 -9 10 -21 10 -11
0 -17 -4 -14 -10z"/>
<path d="M740 1060 c0 -5 6 -10 14 -10 8 0 18 5 21 10 3 6 -3 10 -14 10 -12 0
-21 -4 -21 -10z"/>
<path d="M1925 1100 c-3 -5 3 -10 15 -10 12 0 18 5 15 10 -3 6 -10 10 -15 10
-5 0 -12 -4 -15 -10z"/>
<path d="M2069 1094 c-10 -12 -9 -18 3 -31 19 -18 38 -10 38 17 0 24 -25 33
-41 14z"/>
<path d="M2339 1094 c-10 -12 -9 -18 3 -31 19 -18 38 -10 38 17 0 24 -25 33
-41 14z"/>
<path d="M2741 1100 c-19 -11 -9 -45 14 -45 13 0 21 8 23 21 3 23 -17 37 -37
24z"/>
<path d="M2930 1095 c-16 -19 -5 -47 17 -43 22 4 29 43 9 51 -8 3 -20 -1 -26
-8z"/>
<path d="M3170 1091 c-7 -14 -6 -22 5 -31 18 -15 35 -5 35 20 0 25 -28 33 -40
11z"/>
</g>
</svg>
